<?xml version="1.0" encoding="utf-8"?>
<!-- Generator: Adobe Illustrator 25.2.1, SVG Export Plug-In . SVG Version: 6.00 Build 0)  -->
<svg version="1.1" id="Capa_1" xmlns="http://www.w3.org/2000/svg" xmlns:xlink="http://www.w3.org/1999/xlink" x="0px" y="0px"
	 viewBox="0 0 3000 3000" style="enable-background:new 0 0 3000 3000;" xml:space="preserve">
<style type="text/css">
	.st0{display:none;fill:#1D1D1B;}
	.st1{display:none;fill:#258343;}
	.st2{fill:#258343;}
</style>
<rect class="st0" width="3000" height="3000"/>
<path class="st1" d="M995.5,2398.3l318.8,380c45.3,54,125.8,61,179.8,15.7l0,0c54-45.3,61-125.8,15.7-179.8l-287-342.1l-5.4,3
	L995.5,2398.3z"/>
<path class="st1" d="M829.3,1237.1l-555.4,308.4c-48.2,26.7-90.6,59.9-126.7,97.7c-10.5,11-20.6,22.5-30,34.3
	c-2.7,3.4-5.4,6.8-8,10.2c-9.7,12.7-18.7,25.7-27.1,39.1c-3,4.7-5.9,9.5-8.7,14.4c-2.2,3.7-4.3,7.4-6.4,11.2
	c-2.1,3.7-4.1,7.5-6.1,11.3s-3.9,7.6-5.8,11.4c-1.9,3.8-3.7,7.7-5.5,11.5c-2.7,5.8-5.3,11.7-7.7,17.5c-1.9,4.5-3.7,9-5.5,13.5
	c-1.3,3.4-2.6,6.8-3.9,10.3c-2.9,8-5.6,16.1-8.2,24.2c-1.8,5.7-3.4,11.3-5,17c-1.4,4.9-2.7,9.9-3.9,14.9c-1.4,5.8-2.8,11.6-4,17.5
	c-0.4,2.1-0.9,4.2-1.3,6.3c-1.2,6.3-2.4,12.6-3.4,18.9c-1.7,10.5-3.1,21.1-4.1,31.7c-0.4,4.2-0.8,8.5-1.1,12.8
	c-0.5,6.4-0.8,12.8-1.1,19.2c-0.3,6.4-0.4,12.8-0.4,19.3c0,2.1,0,4.3,0,6.4s0.1,4.3,0.1,6.4c0.1,4.3,0.2,8.6,0.4,12.9
	s0.4,8.6,0.7,12.9c0.3,4.3,0.7,8.6,1.1,12.9c1,10.7,2.4,21.5,4.1,32.2c0.7,4.3,1.4,8.6,2.2,12.9c0.8,4.3,1.6,8.6,2.5,12.8
	c0.9,4.3,1.8,8.5,2.8,12.8s2.1,8.5,3.2,12.8c1.1,4.2,2.3,8.5,3.5,12.7c0.6,2.1,1.2,4.2,1.9,6.3c1.3,4.2,2.6,8.4,4,12.6
	c0.7,2.1,1.4,4.2,2.1,6.3c2.2,6.3,4.4,12.6,6.8,18.8c1.6,4.2,3.3,8.3,5,12.5c3.4,8.3,7.1,16.5,11,24.7c1.9,4.1,3.9,8.2,6,12.2
	c3.1,6.1,6.3,12.2,9.6,18.2l0,0c1.4,2.5,2.7,4.9,4.1,7.3c0.4,0.7,0.8,1.4,1.2,2.1c1.1,1.8,2.2,3.7,3.2,5.5c0.4,0.6,0.8,1.3,1.1,1.9
	c1.4,2.4,2.9,4.7,4.3,7.1c0.2,0.3,0.4,0.7,0.7,1c1.3,2,2.5,4,3.8,6c0.4,0.7,0.9,1.4,1.3,2c1.2,1.8,2.4,3.7,3.6,5.5
	c0.3,0.5,0.7,1,1,1.5c1.5,2.3,3.1,4.6,4.7,6.8c0.3,0.5,0.7,0.9,1,1.4c1.3,1.8,2.6,3.6,3.9,5.4c0.4,0.6,0.9,1.2,1.4,1.9
	c1.4,2,2.9,3.9,4.3,5.8c0.2,0.3,0.4,0.6,0.6,0.8c1.7,2.2,3.3,4.4,5,6.6c0.4,0.5,0.8,1,1.2,1.5c1.3,1.7,2.7,3.4,4.1,5.1
	c0.4,0.5,0.9,1.1,1.3,1.6c3.5,4.3,7,8.5,10.6,12.6c0.4,0.5,0.9,1,1.3,1.5c1.5,1.7,2.9,3.4,4.4,5c0.4,0.4,0.8,0.9,1.2,1.3
	c1.9,2.1,3.7,4.1,5.6,6.1c0.1,0.1,0.2,0.2,0.3,0.3c1.8,1.9,3.5,3.8,5.3,5.6c0.4,0.5,0.9,0.9,1.3,1.4c1.6,1.7,3.3,3.4,4.9,5.1
	c0.3,0.3,0.6,0.6,0.8,0.9c2,2,3.9,3.9,5.9,5.9c0.2,0.2,0.5,0.5,0.7,0.7c1.7,1.7,3.5,3.3,5.2,5c0.4,0.4,0.9,0.8,1.3,1.2
	c1.9,1.8,3.8,3.6,5.7,5.3c0.1,0.1,0.2,0.1,0.2,0.2c2.1,1.9,4.2,3.8,6.3,5.6c0.3,0.3,0.6,0.6,1,0.8c1.8,1.6,3.6,3.1,5.4,4.6
	c0.4,0.3,0.8,0.7,1.2,1c4.2,3.6,8.5,7.1,12.8,10.5c0.4,0.3,0.7,0.6,1.1,0.9c1.9,1.5,3.8,3,5.7,4.4c0.3,0.2,0.6,0.5,0.9,0.7
	c4.4,3.4,8.8,6.6,13.3,9.9c0.4,0.3,0.8,0.6,1.2,0.8c2,1.5,4.1,2.9,6.1,4.3c0.2,0.1,0.4,0.3,0.6,0.4c2.3,1.6,4.7,3.2,7,4.8
	c0.1,0.1,0.3,0.2,0.4,0.3c2.1,1.4,4.3,2.8,6.4,4.2c0.4,0.3,0.8,0.5,1.2,0.8c4.6,3,9.3,5.9,14.1,8.7c0.3,0.2,0.5,0.3,0.8,0.5
	c2.1,1.3,4.2,2.5,6.4,3.7c0.4,0.2,0.7,0.4,1.1,0.6c4.8,2.7,9.6,5.4,14.4,8c0.4,0.2,0.7,0.4,1.1,0.6c2.1,1.1,4.3,2.3,6.5,3.4
	c0.3,0.2,0.6,0.3,0.9,0.5c4.9,2.5,9.8,4.9,14.8,7.3c0.4,0.2,0.8,0.4,1.3,0.6c2.2,1.1,4.5,2.1,6.7,3.1c0.2,0.1,0.4,0.2,0.7,0.3
	c2.5,1.1,5.1,2.3,7.7,3.4c0.2,0.1,0.3,0.1,0.5,0.2c2.3,1,4.6,2,7,2.9c0.5,0.2,0.9,0.4,1.4,0.6c2.4,1,4.9,2,7.3,2.9
	c0,0,0.1,0,0.1,0.1c2.6,1,5.2,2,7.8,3c0.3,0.1,0.7,0.3,1,0.4c2.2,0.8,4.4,1.6,6.6,2.4c0.5,0.2,0.9,0.3,1.4,0.5
	c5.1,1.8,10.2,3.5,15.3,5.2c0.5,0.2,0.9,0.3,1.4,0.5c2.2,0.7,4.3,1.4,6.5,2c0.5,0.1,0.9,0.3,1.4,0.4c5.1,1.6,10.3,3,15.5,4.4
	c0.6,0.2,1.1,0.3,1.7,0.5c2.2,0.6,4.4,1.2,6.6,1.7c0.4,0.1,0.8,0.2,1.2,0.3c2.6,0.7,5.2,1.3,7.9,1.9c0.3,0.1,0.7,0.2,1,0.2
	c2.2,0.5,4.5,1,6.8,1.5c0.6,0.1,1.3,0.3,1.9,0.4c2.3,0.5,4.6,1,6.9,1.4c0.3,0.1,0.6,0.1,0.9,0.2c2.6,0.5,5.2,1,7.9,1.5
	c0.5,0.1,1.1,0.2,1.6,0.3c2.1,0.4,4.2,0.7,6.3,1.1c0.7,0.1,1.3,0.2,2,0.3c2.6,0.4,5.1,0.8,7.7,1.2c0,0,0,0,0.1,0
	c2.6,0.4,5.2,0.8,7.9,1.1c0.7,0.1,1.3,0.2,2,0.3c2,0.3,4.1,0.5,6.1,0.8c0.7,0.1,1.3,0.2,2,0.2c2.6,0.3,5.2,0.6,7.8,0.8
	c0.2,0,0.5,0,0.7,0.1c2.4,0.2,4.7,0.4,7.1,0.6c0.7,0.1,1.5,0.1,2.2,0.2c2.1,0.2,4.1,0.3,6.2,0.5c0.6,0,1.2,0.1,1.8,0.1
	c2.6,0.2,5.2,0.3,7.8,0.5c0.5,0,1,0,1.6,0.1c2.1,0.1,4.2,0.2,6.4,0.3c0.8,0,1.5,0.1,2.3,0.1c2.2,0.1,4.3,0.1,6.5,0.2
	c0.5,0,1,0,1.4,0c2.6,0,5.2,0.1,7.8,0.1c0.7,0,1.4,0,2.2,0c1.8,0,3.6,0,5.4,0c0.8,0,1.7,0,2.5,0c1.8,0,3.6-0.1,5.4-0.1
	c0.7,0,1.4,0,2.1-0.1c2.5-0.1,4.9-0.2,7.4-0.3c0.4,0,0.8,0,1.2-0.1c2.1-0.1,4.2-0.2,6.3-0.3c0.8-0.1,1.7-0.1,2.5-0.2
	c1.7-0.1,3.4-0.2,5.1-0.4c0.9-0.1,1.7-0.1,2.6-0.2c1.9-0.1,3.7-0.3,5.6-0.5c0.6-0.1,1.3-0.1,1.9-0.2c2.4-0.2,4.9-0.5,7.3-0.7
	c0.7-0.1,1.5-0.2,2.2-0.2c1.8-0.2,3.5-0.4,5.3-0.6c0.9-0.1,1.8-0.2,2.8-0.3c1.6-0.2,3.3-0.4,4.9-0.7c0.9-0.1,1.8-0.2,2.7-0.4
	c2.1-0.3,4.1-0.6,6.2-0.9c0.5-0.1,1-0.1,1.4-0.2c2.4-0.4,4.7-0.8,7.1-1.2c0.9-0.2,1.8-0.3,2.7-0.5c1.6-0.3,3.2-0.6,4.8-0.9
	c1-0.2,1.9-0.4,2.9-0.6c1.6-0.3,3.2-0.6,4.8-1c0.9-0.2,1.8-0.3,2.6-0.5c2.4-0.5,4.7-1,7.1-1.5c0.7-0.1,1.3-0.3,2-0.5
	c1.8-0.4,3.6-0.8,5.3-1.2c1-0.2,1.9-0.5,2.9-0.7c1.5-0.4,3.1-0.8,4.6-1.1c1-0.2,1.9-0.5,2.9-0.7c1.7-0.4,3.4-0.9,5.1-1.3
	c0.8-0.2,1.5-0.4,2.3-0.6c2.4-0.6,4.7-1.3,7.1-2c0.8-0.2,1.7-0.5,2.5-0.7c1.6-0.5,3.2-1,4.9-1.4c1-0.3,1.9-0.6,2.9-0.9
	c1.6-0.5,3.1-1,4.6-1.5c0.9-0.3,1.8-0.6,2.7-0.9c2-0.7,4.1-1.3,6.1-2c0.6-0.2,1.1-0.4,1.7-0.6c2.2-0.8,4.4-1.5,6.6-2.3
	c0.9-0.3,1.7-0.6,2.6-0.9c1.6-0.6,3.2-1.2,4.8-1.8c0.9-0.3,1.8-0.7,2.7-1c1.6-0.6,3.3-1.3,4.9-1.9c0.8-0.3,1.5-0.6,2.3-0.9
	c2.4-0.9,4.7-1.9,7-2.9c0.5-0.2,1.1-0.5,1.6-0.7c1.9-0.8,3.7-1.6,5.6-2.4c0.8-0.4,1.7-0.7,2.5-1.1c1.6-0.7,3.2-1.4,4.8-2.1
	c0.8-0.4,1.6-0.7,2.5-1.1c1.9-0.9,3.7-1.7,5.6-2.6c0.5-0.2,1-0.5,1.5-0.7c2.3-1.1,4.7-2.2,7-3.4c0.6-0.3,1.3-0.6,1.9-1
	c1.7-0.9,3.5-1.7,5.2-2.6c0.8-0.4,1.6-0.8,2.4-1.2c1.7-0.9,3.3-1.7,5-2.6c0.7-0.4,1.4-0.8,2.2-1.2c2.3-1.3,4.7-2.5,7-3.8
	l184.6-102.5l227.3-126.2l31.3-17.4l112.6-62.5l-10-18l-493.4-888.6L829.3,1237.1z"/>
<path class="st1" d="M2628.5,1734.8l-751.7-1354c-73.8-132.9-274.9-135.6-375.1-5.1c-206.9,269.5-413.8,538.9-620.7,808.4
	c-9.2,12-17,24.5-23.5,37.5l12.9,23.3l493.4,888.6l10,18l0,0l2.9,5.3c14.5,1.4,29.5,1.3,44.7-0.1
	c337.8-33.6,675.7-67.3,1013.5-100.9C2598.5,2039.5,2702.2,1867.5,2628.5,1734.8z"/>
<path class="st1" d="M2946.8,1479.7h-159.6c-29.4,0-53.2,23.8-53.2,53.2c0,29.4,23.8,53.2,53.2,53.2h159.6
	c29.4,0,53.2-23.8,53.2-53.2S2976.2,1479.7,2946.8,1479.7z"/>
<path class="st1" d="M2395.5,982.1c14.7,25.4,47.2,34.2,72.7,19.5l138.2-79.8c25.4-14.7,34.2-47.2,19.5-72.7l0,0
	c-14.7-25.4-47.2-34.2-72.7-19.5L2415,909.5C2389.6,924.2,2380.9,956.7,2395.5,982.1L2395.5,982.1z"/>
<path class="st1" d="M2087.9,413.6L2087.9,413.6c25.4,14.7,58,6,72.7-19.5l79.8-138.2c14.7-25.4,6-58-19.5-72.7l0,0
	c-25.4-14.7-58-6-72.7,19.5l-79.8,138.2C2053.7,366.4,2062.4,398.9,2087.9,413.6z"/>
<g>
	<path class="st2" d="M995.5,2398.3l318.8,380c45.3,54,125.8,61,179.8,15.7l0,0c54-45.3,61-125.8,15.7-179.8l-287-342.1l-5.4,3
		L995.5,2398.3z"/>
	<path class="st2" d="M829.3,1237.1l-555.4,308.4c-48.2,26.7-90.6,59.9-126.7,97.7c-10.5,11-20.6,22.5-30,34.3
		c-2.7,3.4-5.4,6.8-8,10.2c-9.7,12.7-18.7,25.7-27.1,39.1c-3,4.7-5.9,9.5-8.7,14.4c-2.2,3.7-4.3,7.4-6.4,11.2
		c-2.1,3.7-4.1,7.5-6.1,11.3s-3.9,7.6-5.8,11.4c-1.9,3.8-3.7,7.7-5.5,11.5c-2.7,5.8-5.3,11.7-7.7,17.5c-1.9,4.5-3.7,9-5.5,13.5
		c-1.3,3.4-2.6,6.8-3.9,10.3c-2.9,8-5.6,16.1-8.2,24.2c-1.8,5.7-3.4,11.3-5,17c-1.4,4.9-2.7,9.9-3.9,14.9c-1.4,5.8-2.8,11.6-4,17.5
		c-0.4,2.1-0.9,4.2-1.3,6.3c-1.2,6.3-2.4,12.6-3.4,18.9c-1.7,10.5-3.1,21.1-4.1,31.7c-0.4,4.2-0.8,8.5-1.1,12.8
		c-0.5,6.4-0.8,12.8-1.1,19.2c-0.3,6.4-0.4,12.8-0.4,19.3c0,2.1,0,4.3,0,6.4s0.1,4.3,0.1,6.4c0.1,4.3,0.2,8.6,0.4,12.9
		s0.4,8.6,0.7,12.9c0.3,4.3,0.7,8.6,1.1,12.9c1,10.7,2.4,21.5,4.1,32.2c0.7,4.3,1.4,8.6,2.2,12.9c0.8,4.3,1.6,8.6,2.5,12.8
		c0.9,4.3,1.8,8.5,2.8,12.8s2.1,8.5,3.2,12.8c1.1,4.2,2.3,8.5,3.5,12.7c0.6,2.1,1.2,4.2,1.9,6.3c1.3,4.2,2.6,8.4,4,12.6
		c0.7,2.1,1.4,4.2,2.1,6.3c2.2,6.3,4.4,12.6,6.8,18.8c1.6,4.2,3.3,8.3,5,12.5c3.4,8.3,7.1,16.5,11,24.7c1.9,4.1,3.9,8.2,6,12.2
		c3.1,6.1,6.3,12.2,9.6,18.2l0,0c1.4,2.5,2.7,4.9,4.1,7.3c0.4,0.7,0.8,1.4,1.2,2.1c1.1,1.8,2.2,3.7,3.2,5.5c0.4,0.6,0.8,1.3,1.1,1.9
		c1.4,2.4,2.9,4.7,4.3,7.1c0.2,0.3,0.4,0.7,0.7,1c1.3,2,2.5,4,3.8,6c0.4,0.7,0.9,1.4,1.3,2c1.2,1.8,2.4,3.7,3.6,5.5
		c0.3,0.5,0.7,1,1,1.5c1.5,2.3,3.1,4.6,4.7,6.8c0.3,0.5,0.7,0.9,1,1.4c1.3,1.8,2.6,3.6,3.9,5.4c0.4,0.6,0.9,1.2,1.4,1.9
		c1.4,2,2.9,3.9,4.3,5.8c0.2,0.3,0.4,0.6,0.6,0.8c1.7,2.2,3.3,4.4,5,6.6c0.4,0.5,0.8,1,1.2,1.5c1.3,1.7,2.7,3.4,4.1,5.1
		c0.4,0.5,0.9,1.1,1.3,1.6c3.5,4.3,7,8.5,10.6,12.6c0.4,0.5,0.9,1,1.3,1.5c1.5,1.7,2.9,3.4,4.4,5c0.4,0.4,0.8,0.9,1.2,1.3
		c1.9,2.1,3.7,4.1,5.6,6.1c0.1,0.1,0.2,0.2,0.3,0.3c1.8,1.9,3.5,3.8,5.3,5.6c0.4,0.5,0.9,0.9,1.3,1.4c1.6,1.7,3.3,3.4,4.9,5.1
		c0.3,0.3,0.6,0.6,0.8,0.9c2,2,3.9,3.9,5.9,5.9c0.2,0.2,0.5,0.5,0.7,0.7c1.7,1.7,3.5,3.3,5.2,5c0.4,0.4,0.9,0.8,1.3,1.2
		c1.9,1.8,3.8,3.6,5.7,5.3c0.1,0.1,0.2,0.1,0.2,0.2c2.1,1.9,4.2,3.8,6.3,5.6c0.3,0.3,0.6,0.6,1,0.8c1.8,1.6,3.6,3.1,5.4,4.6
		c0.4,0.3,0.8,0.7,1.2,1c4.2,3.6,8.5,7.1,12.8,10.5c0.4,0.3,0.7,0.6,1.1,0.9c1.9,1.5,3.8,3,5.7,4.4c0.3,0.2,0.6,0.5,0.9,0.7
		c4.4,3.4,8.8,6.6,13.3,9.9c0.4,0.3,0.8,0.6,1.2,0.8c2,1.5,4.1,2.9,6.1,4.3c0.2,0.1,0.4,0.3,0.6,0.4c2.3,1.6,4.7,3.2,7,4.8
		c0.1,0.1,0.3,0.2,0.4,0.3c2.1,1.4,4.3,2.8,6.4,4.2c0.4,0.3,0.8,0.5,1.2,0.8c4.6,3,9.3,5.9,14.1,8.7c0.3,0.2,0.5,0.3,0.8,0.5
		c2.1,1.3,4.2,2.5,6.4,3.7c0.4,0.2,0.7,0.4,1.1,0.6c4.8,2.7,9.6,5.4,14.4,8c0.4,0.2,0.7,0.4,1.1,0.6c2.1,1.1,4.3,2.3,6.5,3.4
		c0.3,0.2,0.6,0.3,0.9,0.5c4.9,2.5,9.8,4.9,14.8,7.3c0.4,0.2,0.8,0.4,1.3,0.6c2.2,1.1,4.5,2.1,6.7,3.1c0.2,0.1,0.4,0.2,0.7,0.3
		c2.5,1.1,5.1,2.3,7.7,3.4c0.2,0.1,0.3,0.1,0.5,0.2c2.3,1,4.6,2,7,2.9c0.5,0.2,0.9,0.4,1.4,0.6c2.4,1,4.9,2,7.3,2.9
		c0,0,0.1,0,0.1,0.1c2.6,1,5.2,2,7.8,3c0.3,0.1,0.7,0.3,1,0.4c2.2,0.8,4.4,1.6,6.6,2.4c0.5,0.2,0.9,0.3,1.4,0.5
		c5.1,1.8,10.2,3.5,15.3,5.2c0.5,0.2,0.9,0.3,1.4,0.5c2.2,0.7,4.3,1.4,6.5,2c0.5,0.1,0.9,0.3,1.4,0.4c5.1,1.6,10.3,3,15.5,4.4
		c0.6,0.2,1.1,0.3,1.7,0.5c2.2,0.6,4.4,1.2,6.6,1.7c0.4,0.1,0.8,0.2,1.2,0.3c2.6,0.7,5.2,1.3,7.9,1.9c0.3,0.1,0.7,0.2,1,0.2
		c2.2,0.5,4.5,1,6.8,1.5c0.6,0.1,1.3,0.3,1.9,0.4c2.3,0.5,4.6,1,6.9,1.4c0.3,0.1,0.6,0.1,0.9,0.2c2.6,0.5,5.2,1,7.9,1.5
		c0.5,0.1,1.1,0.2,1.6,0.3c2.1,0.4,4.2,0.7,6.3,1.1c0.7,0.1,1.3,0.2,2,0.3c2.6,0.4,5.1,0.8,7.7,1.2c0,0,0,0,0.1,0
		c2.6,0.4,5.2,0.8,7.9,1.1c0.7,0.1,1.3,0.2,2,0.3c2,0.3,4.1,0.5,6.1,0.8c0.7,0.1,1.3,0.2,2,0.2c2.6,0.3,5.2,0.6,7.8,0.8
		c0.2,0,0.5,0,0.7,0.1c2.4,0.2,4.7,0.4,7.1,0.6c0.7,0.1,1.5,0.1,2.2,0.2c2.1,0.2,4.1,0.3,6.2,0.5c0.6,0,1.2,0.1,1.8,0.1
		c2.6,0.2,5.2,0.3,7.8,0.5c0.5,0,1,0,1.6,0.1c2.1,0.1,4.2,0.2,6.4,0.3c0.8,0,1.5,0.1,2.3,0.1c2.2,0.1,4.3,0.1,6.5,0.2
		c0.5,0,1,0,1.4,0c2.6,0,5.2,0.1,7.8,0.1c0.7,0,1.4,0,2.2,0c1.8,0,3.6,0,5.4,0c0.8,0,1.7,0,2.5,0c1.8,0,3.6-0.1,5.4-0.1
		c0.7,0,1.4,0,2.1-0.1c2.5-0.1,4.9-0.2,7.4-0.3c0.4,0,0.8,0,1.2-0.1c2.1-0.1,4.2-0.2,6.3-0.3c0.8-0.1,1.7-0.1,2.5-0.2
		c1.7-0.1,3.4-0.2,5.1-0.4c0.9-0.1,1.7-0.1,2.6-0.2c1.9-0.1,3.7-0.3,5.6-0.5c0.6-0.1,1.3-0.1,1.9-0.2c2.4-0.2,4.9-0.5,7.3-0.7
		c0.7-0.1,1.5-0.2,2.2-0.2c1.8-0.2,3.5-0.4,5.3-0.6c0.9-0.1,1.8-0.2,2.8-0.3c1.6-0.2,3.3-0.4,4.9-0.7c0.9-0.1,1.8-0.2,2.7-0.4
		c2.1-0.3,4.1-0.6,6.2-0.9c0.5-0.1,1-0.1,1.4-0.2c2.4-0.4,4.7-0.8,7.1-1.2c0.9-0.2,1.8-0.3,2.7-0.5c1.6-0.3,3.2-0.6,4.8-0.9
		c1-0.2,1.9-0.4,2.9-0.6c1.6-0.3,3.2-0.6,4.8-1c0.9-0.2,1.8-0.3,2.6-0.5c2.4-0.5,4.7-1,7.1-1.5c0.7-0.1,1.3-0.3,2-0.5
		c1.8-0.4,3.6-0.8,5.3-1.2c1-0.2,1.9-0.5,2.9-0.7c1.5-0.4,3.1-0.8,4.6-1.1c1-0.2,1.9-0.5,2.9-0.7c1.7-0.4,3.4-0.9,5.1-1.3
		c0.8-0.2,1.5-0.4,2.3-0.6c2.4-0.6,4.7-1.3,7.1-2c0.8-0.2,1.7-0.5,2.5-0.7c1.6-0.5,3.2-1,4.9-1.4c1-0.3,1.9-0.6,2.9-0.9
		c1.6-0.5,3.1-1,4.6-1.5c0.9-0.3,1.8-0.6,2.7-0.9c2-0.7,4.1-1.3,6.1-2c0.6-0.2,1.1-0.4,1.7-0.6c2.2-0.8,4.4-1.5,6.6-2.3
		c0.9-0.3,1.7-0.6,2.6-0.9c1.6-0.6,3.2-1.2,4.8-1.8c0.9-0.3,1.8-0.7,2.7-1c1.6-0.6,3.3-1.3,4.9-1.9c0.8-0.3,1.5-0.6,2.3-0.9
		c2.4-0.9,4.7-1.9,7-2.9c0.5-0.2,1.1-0.5,1.6-0.7c1.9-0.8,3.7-1.6,5.6-2.4c0.8-0.4,1.7-0.7,2.5-1.1c1.6-0.7,3.2-1.4,4.8-2.1
		c0.8-0.4,1.6-0.7,2.5-1.1c1.9-0.9,3.7-1.7,5.6-2.6c0.5-0.2,1-0.5,1.5-0.7c2.3-1.1,4.7-2.2,7-3.4c0.6-0.3,1.3-0.6,1.9-1
		c1.7-0.9,3.5-1.7,5.2-2.6c0.8-0.4,1.6-0.8,2.4-1.2c1.7-0.9,3.3-1.7,5-2.6c0.7-0.4,1.4-0.8,2.2-1.2c2.3-1.3,4.7-2.5,7-3.8
		l184.6-102.5l227.3-126.2l31.3-17.4l112.6-62.5l-10-18l-493.4-888.6L829.3,1237.1z"/>
	<path class="st2" d="M2628.5,1734.8l-751.7-1354c-73.8-132.9-274.9-135.6-375.1-5.1c-206.9,269.5-413.8,538.9-620.7,808.4
		c-9.2,12-17,24.5-23.5,37.5l12.9,23.3l493.4,888.6l10,18l0,0l2.9,5.3c14.5,1.4,29.5,1.3,44.7-0.1
		c337.8-33.6,675.7-67.3,1013.5-100.9C2598.5,2039.5,2702.2,1867.5,2628.5,1734.8z"/>
	<path class="st2" d="M2946.8,1479.7h-159.6c-29.4,0-53.2,23.8-53.2,53.2c0,29.4,23.8,53.2,53.2,53.2h159.6
		c29.4,0,53.2-23.8,53.2-53.2S2976.2,1479.7,2946.8,1479.7z"/>
	<path class="st2" d="M2395.5,982.1c14.7,25.4,47.2,34.2,72.7,19.5l138.2-79.8c25.4-14.7,34.2-47.2,19.5-72.7l0,0
		c-14.7-25.4-47.2-34.2-72.7-19.5L2415,909.5C2389.6,924.2,2380.9,956.7,2395.5,982.1L2395.5,982.1z"/>
	<path class="st2" d="M2087.9,413.6L2087.9,413.6c25.4,14.7,58,6,72.7-19.5l79.8-138.2c14.7-25.4,6-58-19.5-72.7l0,0
		c-25.4-14.7-58-6-72.7,19.5l-79.8,138.2C2053.7,366.4,2062.4,398.9,2087.9,413.6z"/>
</g>
</svg>
