<svg xmlns="http://www.w3.org/2000/svg" viewBox="0 0 2652.64 2544.42"><defs><style>.cls-1{fill:#258343;}</style></defs><g id="Capa_2" data-name="Capa 2"><g id="Capa_1-2" data-name="Capa 1"><path class="cls-1" d="M995.5,2118.85l318.8,380a127.62,127.62,0,0,0,179.8,15.7h0a127.62,127.62,0,0,0,15.7-179.8l-287-342.1-5.4,3Z"/><path class="cls-1" d="M829.3,957.65l-555.4,308.4a530.34,530.34,0,0,0-126.7,97.7c-10.5,11-20.6,22.5-30,34.3-2.7,3.4-5.4,6.8-8,10.2q-14.55,19.05-27.1,39.1-4.5,7.05-8.7,14.4c-2.2,3.7-4.3,7.4-6.4,11.2s-4.1,7.5-6.1,11.3-3.9,7.6-5.8,11.4-3.7,7.7-5.5,11.5c-2.7,5.8-5.3,11.7-7.7,17.5-1.9,4.5-3.7,9-5.5,13.5-1.3,3.4-2.6,6.8-3.9,10.3-2.9,8-5.6,16.1-8.2,24.2-1.8,5.7-3.4,11.3-5,17-1.4,4.9-2.7,9.9-3.9,14.9-1.4,5.8-2.8,11.6-4,17.5-.4,2.1-.9,4.2-1.3,6.3-1.2,6.3-2.4,12.6-3.4,18.9-1.7,10.5-3.1,21.1-4.1,31.7-.4,4.2-.8,8.5-1.1,12.8-.5,6.4-.8,12.8-1.1,19.2s-.4,12.8-.4,19.3v6.4c0,2.1.1,4.3.1,6.4.1,4.3.2,8.6.4,12.9s.4,8.6.7,12.9.7,8.6,1.1,12.9c1,10.7,2.4,21.5,4.1,32.2.7,4.3,1.4,8.6,2.2,12.9s1.6,8.6,2.5,12.8,1.8,8.5,2.8,12.8,2.1,8.5,3.2,12.8,2.3,8.5,3.5,12.7c.6,2.1,1.2,4.2,1.9,6.3,1.3,4.2,2.6,8.4,4,12.6l2.1,6.3c2.2,6.3,4.4,12.6,6.8,18.8,1.6,4.2,3.3,8.3,5,12.5,3.4,8.3,7.1,16.5,11,24.7,1.9,4.1,3.9,8.2,6,12.2,3.1,6.1,6.3,12.2,9.6,18.2h0c1.4,2.5,2.7,4.9,4.1,7.3l1.2,2.1c1.1,1.8,2.2,3.7,3.2,5.5a18.58,18.58,0,0,1,1.1,1.9c1.4,2.4,2.9,4.7,4.3,7.1a6.07,6.07,0,0,0,.7,1c1.3,2,2.5,4,3.8,6,.4.7.9,1.4,1.3,2,1.2,1.8,2.4,3.7,3.6,5.5.3.5.7,1,1,1.5,1.5,2.3,3.1,4.6,4.7,6.8.3.5.7.9,1,1.4l3.9,5.4c.4.6.9,1.2,1.4,1.9,1.4,2,2.9,3.9,4.3,5.8a5.55,5.55,0,0,0,.6.8c1.7,2.2,3.3,4.4,5,6.6l1.2,1.5c1.3,1.7,2.7,3.4,4.1,5.1l1.3,1.6c3.5,4.3,7,8.5,10.6,12.6.4.5.9,1,1.3,1.5,1.5,1.7,2.9,3.4,4.4,5,.4.4.8.9,1.2,1.3,1.9,2.1,3.7,4.1,5.6,6.1l.3.3c1.8,1.9,3.5,3.8,5.3,5.6.4.5.9.9,1.3,1.4,1.6,1.7,3.3,3.4,4.9,5.1a6.47,6.47,0,0,1,.8.9l5.9,5.9.7.7c1.7,1.7,3.5,3.3,5.2,5,.4.4.9.8,1.3,1.2,1.9,1.8,3.8,3.6,5.7,5.3.1.1.2.1.2.2,2.1,1.9,4.2,3.8,6.3,5.6a3.92,3.92,0,0,0,1,.8c1.8,1.6,3.6,3.1,5.4,4.6.4.3.8.7,1.2,1,4.2,3.6,8.5,7.1,12.8,10.5.4.3.7.6,1.1.9,1.9,1.5,3.8,3,5.7,4.4.3.2.6.5.9.7,4.4,3.4,8.8,6.6,13.3,9.9a8.34,8.34,0,0,0,1.2.8c2,1.5,4.1,2.9,6.1,4.3.2.1.4.3.6.4,2.3,1.6,4.7,3.2,7,4.8.1.1.3.2.4.3,2.1,1.4,4.3,2.8,6.4,4.2.4.3.8.5,1.2.8q6.9,4.5,14.1,8.7c.3.2.5.3.8.5,2.1,1.3,4.2,2.5,6.4,3.7.4.2.7.4,1.1.6,4.8,2.7,9.6,5.4,14.4,8,.4.2.7.4,1.1.6,2.1,1.1,4.3,2.3,6.5,3.4.3.2.6.3.9.5,4.9,2.5,9.8,4.9,14.8,7.3.4.2.8.4,1.3.6,2.2,1.1,4.5,2.1,6.7,3.1a4.88,4.88,0,0,0,.7.3c2.5,1.1,5.1,2.3,7.7,3.4.2.1.3.1.5.2,2.3,1,4.6,2,7,2.9.5.2.9.4,1.4.6,2.4,1,4.9,2,7.3,2.9a.1.1,0,0,1,.1.1l7.8,3c.3.1.7.3,1,.4l6.6,2.4c.5.2.9.3,1.4.5,5.1,1.8,10.2,3.5,15.3,5.2.5.2.9.3,1.4.5,2.2.7,4.3,1.4,6.5,2,.5.1.9.3,1.4.4,5.1,1.6,10.3,3,15.5,4.4.6.2,1.1.3,1.7.5,2.2.6,4.4,1.2,6.6,1.7l1.2.3c2.6.7,5.2,1.3,7.9,1.9a3.55,3.55,0,0,0,1,.2c2.2.5,4.5,1,6.8,1.5.6.1,1.3.3,1.9.4,2.3.5,4.6,1,6.9,1.4.3.1.6.1.9.2,2.6.5,5.2,1,7.9,1.5l1.6.3c2.1.4,4.2.7,6.3,1.1l2,.3,7.7,1.2h.1c2.6.4,5.2.8,7.9,1.1l2,.3c2,.3,4.1.5,6.1.8a13.55,13.55,0,0,0,2,.2c2.6.3,5.2.6,7.8.8a1.7,1.7,0,0,1,.7.1l7.1.6c.7.1,1.5.1,2.2.2,2.1.2,4.1.3,6.2.5.6,0,1.2.1,1.8.1,2.6.2,5.2.3,7.8.5a9.15,9.15,0,0,1,1.6.1l6.4.3c.8,0,1.5.1,2.3.1,2.2.1,4.3.1,6.5.2h1.4c2.6,0,5.2.1,7.8.1H542c1.8,0,3.6-.1,5.4-.1a14.77,14.77,0,0,0,2.1-.1l7.4-.3a4.87,4.87,0,0,0,1.2-.1l6.3-.3c.8-.1,1.7-.1,2.5-.2,1.7-.1,3.4-.2,5.1-.4.9-.1,1.7-.1,2.6-.2,1.9-.1,3.7-.3,5.6-.5.6-.1,1.3-.1,1.9-.2,2.4-.2,4.9-.5,7.3-.7a16.35,16.35,0,0,1,2.2-.2l5.3-.6,2.8-.3c1.6-.2,3.3-.4,4.9-.7a25.12,25.12,0,0,0,2.7-.4l6.2-.9c.5-.1,1-.1,1.4-.2l7.1-1.2c.9-.2,1.8-.3,2.7-.5l4.8-.9,2.9-.6c1.6-.3,3.2-.6,4.8-1,.9-.2,1.8-.3,2.6-.5l7.1-1.5a14.62,14.62,0,0,0,2-.5c1.8-.4,3.6-.8,5.3-1.2,1-.2,1.9-.5,2.9-.7,1.5-.4,3.1-.8,4.6-1.1,1-.2,1.9-.5,2.9-.7,1.7-.4,3.4-.9,5.1-1.3l2.3-.6c2.4-.6,4.7-1.3,7.1-2,.8-.2,1.7-.5,2.5-.7,1.6-.5,3.2-1,4.9-1.4,1-.3,1.9-.6,2.9-.9,1.6-.5,3.1-1,4.6-1.5l2.7-.9c2-.7,4.1-1.3,6.1-2,.6-.2,1.1-.4,1.7-.6,2.2-.8,4.4-1.5,6.6-2.3.9-.3,1.7-.6,2.6-.9l4.8-1.8c.9-.3,1.8-.7,2.7-1,1.6-.6,3.3-1.3,4.9-1.9.8-.3,1.5-.6,2.3-.9,2.4-.9,4.7-1.9,7-2.9.5-.2,1.1-.5,1.6-.7,1.9-.8,3.7-1.6,5.6-2.4.8-.4,1.7-.7,2.5-1.1l4.8-2.1c.8-.4,1.6-.7,2.5-1.1,1.9-.9,3.7-1.7,5.6-2.6.5-.2,1-.5,1.5-.7,2.3-1.1,4.7-2.2,7-3.4a17.38,17.38,0,0,0,1.9-1c1.7-.9,3.5-1.7,5.2-2.6l2.4-1.2c1.7-.9,3.3-1.7,5-2.6.7-.4,1.4-.8,2.2-1.2,2.3-1.3,4.7-2.5,7-3.8l184.6-102.5,227.3-126.2,31.3-17.4,112.6-62.5-10-18L842.6,981.05Z"/><path class="cls-1" d="M2628.5,1455.35l-751.7-1354c-73.8-132.9-274.9-135.6-375.1-5.1Q1191.35,500.5,881,904.65a232.1,232.1,0,0,0-23.5,37.5l12.9,23.3,493.4,888.6,10,18v0l3,5.31a238.1,238.1,0,0,0,44.66-.13q506.7-50.4,1013.5-100.9C2598.5,1760.05,2702.2,1588.05,2628.5,1455.35Z"/></g></g></svg>